<mxfile host="app.diagrams.net" modified="2023-08-16T00:18:28.211Z" agent="Mozilla/5.0 (Windows NT 10.0; Win64; x64) AppleWebKit/537.36 (KHTML, like Gecko) Chrome/114.0.0.0 Safari/537.36 OPR/100.0.0.0" etag="vdJ91GGJaXrzwj5H0bxj" version="21.6.6" type="github">
  <diagram name="PÃ¡gina-1" id="gaglXOY1fkiQmku1G0-f">
    <mxGraphModel dx="1469" dy="638" grid="1" gridSize="10" guides="1" tooltips="1" connect="1" arrows="1" fold="1" page="1" pageScale="1" pageWidth="827" pageHeight="1169" math="0" shadow="0">
      <root>
        <mxCell id="0" />
        <mxCell id="1" parent="0" />
      </root>
    </mxGraphModel>
  </diagram>
</mxfile>
